# xmcd
#
# Track frame offsets: 
#        150
#        5937
#        18830
#        28977
#        37562
#        49842
#        51540
#        65467
#        78515
#        80265
#        92720
#        103217
#        116467
#        125085
#
# Disc length: 1791 seconds
#
# Revision: 0
# Processed by: cddbd v1.5.2PL0 Copyright (c) Steve Scherf et al.
# Submitted via: ExactAudioCopy v0.95b3
#
DISCID=b706fd0e
DTITLE=Glen Sherley - Live at Vacaville, California
DYEAR=2006
DGENRE=Country
TTITLE0=Dialogue
TTITLE1=Looking back in anger
TTITLE2=Greystone Chapel
TTITLE3=FBI Top ten
TTITLE4=Portrait of a woman
TTITLE5=Dialogue
TTITLE6=Mama had Country soul
TTITLE7=Pick a bouquet
TTITLE8=Dialogue
TTITLE9=If this prison yard could talk
TTITLE10=Step right this way
TTITLE11=Frisco Song
TTITLE12=Keep steppin'
TTITLE13=Measure of a man
EXTD=(c)2006 Bear Family Records Germany\n(p)1971 \n\nLive Recordings 
EXTD=in San Quentin Prison
EXTT0=
EXTT1=
EXTT2=
EXTT3=
EXTT4=
EXTT5=
EXTT6=
EXTT7=
EXTT8=
EXTT9=
EXTT10=
EXTT11=
EXTT12=
EXTT13=
PLAYORDER=
